<svg viewBox="0 0 640 340" xmlns="http://www.w3.org/2000/svg" role="img" aria-labelledby="klatch-title" aria-describedby="klatch-desc">
    <title id="klatch-title">Conversation cards gathered at a shared table, one being set into place, one marked as a role</title>
    <desc id="klatch-desc">A still-life in muted slate tones. An oblique round-cornered table — the klatch — has standing cards at its seats, each card an existing conversation with a name tab and a few lines of text. One card is tilted, mid-placement, being brought into the room. One seated card carries a small red marker: a conversation that has been promoted into a persistent role.</desc>

    <rect width="640" height="340" fill="#f8fafc"/>
    <rect x="0" y="0" width="640" height="150" fill="#f1f5f9"/>

    <polygon points="190,168 450,168 512,262 128,262" rx="6" fill="#dde4f0"/>
    <polygon points="128,262 512,262 516,268 124,268" fill="#b0bfd3"/>
    <line x1="190" y1="168" x2="450" y2="168" stroke="#cbd5e1" stroke-width="0.75"/>

    <g transform="translate(180,120)">
      <rect width="78" height="58" rx="3" fill="#ffffff" stroke="#94a3b8" stroke-width="1"/>
      <rect x="0" y="0" width="78" height="11" rx="3" fill="#7a94ab"/>
      <rect x="0" y="6" width="78" height="5" fill="#7a94ab"/>
      <line x1="10" y1="24" x2="68" y2="24" stroke="#cbd5e1" stroke-width="0.75"/>
      <line x1="10" y1="32" x2="62" y2="32" stroke="#cbd5e1" stroke-width="0.75"/>
      <line x1="10" y1="40" x2="68" y2="40" stroke="#cbd5e1" stroke-width="0.75"/>
      <line x1="10" y1="48" x2="58" y2="48" stroke="#cbd5e1" stroke-width="0.75"/>
    </g>

    <g transform="translate(372,116)">
      <rect width="78" height="58" rx="3" fill="#ffffff" stroke="#4a6175" stroke-width="1.25"/>
      <rect x="0" y="0" width="78" height="11" rx="3" fill="#4a6175"/>
      <rect x="0" y="6" width="78" height="5" fill="#4a6175"/>
      <line x1="10" y1="24" x2="68" y2="24" stroke="#64748b" stroke-width="0.75"/>
      <line x1="10" y1="32" x2="64" y2="32" stroke="#64748b" stroke-width="0.75"/>
      <line x1="10" y1="40" x2="68" y2="40" stroke="#64748b" stroke-width="0.75"/>
      <line x1="10" y1="48" x2="60" y2="48" stroke="#64748b" stroke-width="0.75"/>
      <circle cx="70" cy="6" r="5" fill="#EF4444"/>
    </g>

    <g transform="translate(266,150)">
      <rect width="80" height="60" rx="3" fill="#ffffff" stroke="#94a3b8" stroke-width="1"/>
      <rect x="0" y="0" width="80" height="11" rx="3" fill="#b0bfd3"/>
      <rect x="0" y="6" width="80" height="5" fill="#b0bfd3"/>
      <line x1="10" y1="25" x2="70" y2="25" stroke="#cbd5e1" stroke-width="0.75"/>
      <line x1="10" y1="33" x2="64" y2="33" stroke="#cbd5e1" stroke-width="0.75"/>
      <line x1="10" y1="41" x2="70" y2="41" stroke="#cbd5e1" stroke-width="0.75"/>
      <line x1="10" y1="49" x2="60" y2="49" stroke="#cbd5e1" stroke-width="0.75"/>
    </g>

    <g transform="translate(430,150) rotate(-14)">
      <rect width="76" height="56" rx="3" fill="#ffffff" stroke="#7a94ab" stroke-width="1"/>
      <rect x="0" y="0" width="76" height="11" rx="3" fill="#94a3b8"/>
      <rect x="0" y="6" width="76" height="5" fill="#94a3b8"/>
      <line x1="10" y1="24" x2="66" y2="24" stroke="#cbd5e1" stroke-width="0.75"/>
      <line x1="10" y1="32" x2="60" y2="32" stroke="#cbd5e1" stroke-width="0.75"/>
      <line x1="10" y1="40" x2="66" y2="40" stroke="#cbd5e1" stroke-width="0.75"/>
    </g>
    <ellipse cx="452" cy="214" rx="34" ry="5" fill="#b0bfd3" opacity="0.4"/>

  </svg>
